G04 #@! TF.GenerationSoftware,KiCad,Pcbnew,5.1.5+dfsg1-2build2*
G04 #@! TF.CreationDate,2021-12-19T10:03:43+01:00*
G04 #@! TF.ProjectId,Drehko_large_Stator,44726568-6b6f-45f6-9c61-7267655f5374,1.0*
G04 #@! TF.SameCoordinates,Original*
G04 #@! TF.FileFunction,Soldermask,Bot*
G04 #@! TF.FilePolarity,Negative*
%FSLAX46Y46*%
G04 Gerber Fmt 4.6, Leading zero omitted, Abs format (unit mm)*
G04 Created by KiCad (PCBNEW 5.1.5+dfsg1-2build2) date 2021-12-19 10:03:43*
%MOMM*%
%LPD*%
G04 APERTURE LIST*
%ADD10C,0.100000*%
G04 APERTURE END LIST*
D10*
G36*
X180400399Y-124383499D02*
G01*
X181274125Y-124745408D01*
X181274126Y-124745409D01*
X182060459Y-125270820D01*
X182729180Y-125939541D01*
X182835727Y-126099000D01*
X183254592Y-126725875D01*
X183616501Y-127599601D01*
X183801000Y-128527141D01*
X183801000Y-129472859D01*
X183616501Y-130400399D01*
X183254592Y-131274125D01*
X183254591Y-131274126D01*
X182729180Y-132060459D01*
X182060459Y-132729180D01*
X181535047Y-133080249D01*
X181274125Y-133254592D01*
X180400399Y-133616501D01*
X179472859Y-133801000D01*
X178527141Y-133801000D01*
X177599601Y-133616501D01*
X176725875Y-133254592D01*
X176464953Y-133080249D01*
X175939541Y-132729180D01*
X175270820Y-132060459D01*
X174745409Y-131274126D01*
X174745408Y-131274125D01*
X174383499Y-130400399D01*
X174199000Y-129472859D01*
X174199000Y-128527141D01*
X174383499Y-127599601D01*
X174745408Y-126725875D01*
X175164273Y-126099000D01*
X175270820Y-125939541D01*
X175939541Y-125270820D01*
X176725874Y-124745409D01*
X176725875Y-124745408D01*
X177599601Y-124383499D01*
X178527141Y-124199000D01*
X179472859Y-124199000D01*
X180400399Y-124383499D01*
G37*
G36*
X122400399Y-124383499D02*
G01*
X123274125Y-124745408D01*
X123274126Y-124745409D01*
X124060459Y-125270820D01*
X124729180Y-125939541D01*
X124835727Y-126099000D01*
X125254592Y-126725875D01*
X125616501Y-127599601D01*
X125801000Y-128527141D01*
X125801000Y-129472859D01*
X125616501Y-130400399D01*
X125254592Y-131274125D01*
X125254591Y-131274126D01*
X124729180Y-132060459D01*
X124060459Y-132729180D01*
X123535047Y-133080249D01*
X123274125Y-133254592D01*
X122400399Y-133616501D01*
X121472859Y-133801000D01*
X120527141Y-133801000D01*
X119599601Y-133616501D01*
X118725875Y-133254592D01*
X118464953Y-133080249D01*
X117939541Y-132729180D01*
X117270820Y-132060459D01*
X116745409Y-131274126D01*
X116745408Y-131274125D01*
X116383499Y-130400399D01*
X116199000Y-129472859D01*
X116199000Y-128527141D01*
X116383499Y-127599601D01*
X116745408Y-126725875D01*
X117164273Y-126099000D01*
X117270820Y-125939541D01*
X117939541Y-125270820D01*
X118725874Y-124745409D01*
X118725875Y-124745408D01*
X119599601Y-124383499D01*
X120527141Y-124199000D01*
X121472859Y-124199000D01*
X122400399Y-124383499D01*
G37*
G36*
X180400399Y-66383499D02*
G01*
X181274125Y-66745408D01*
X181535047Y-66919751D01*
X182060459Y-67270820D01*
X182729180Y-67939541D01*
X182835727Y-68099000D01*
X183254592Y-68725875D01*
X183616501Y-69599601D01*
X183801000Y-70527141D01*
X183801000Y-71472859D01*
X183616501Y-72400399D01*
X183254592Y-73274125D01*
X183254591Y-73274126D01*
X182729180Y-74060459D01*
X182060459Y-74729180D01*
X181535047Y-75080249D01*
X181274125Y-75254592D01*
X180400399Y-75616501D01*
X179472859Y-75801000D01*
X178527141Y-75801000D01*
X177599601Y-75616501D01*
X176725875Y-75254592D01*
X176464953Y-75080249D01*
X175939541Y-74729180D01*
X175270820Y-74060459D01*
X174745409Y-73274126D01*
X174745408Y-73274125D01*
X174383499Y-72400399D01*
X174199000Y-71472859D01*
X174199000Y-70527141D01*
X174383499Y-69599601D01*
X174745408Y-68725875D01*
X175164273Y-68099000D01*
X175270820Y-67939541D01*
X175939541Y-67270820D01*
X176464953Y-66919751D01*
X176725875Y-66745408D01*
X177599601Y-66383499D01*
X178527141Y-66199000D01*
X179472859Y-66199000D01*
X180400399Y-66383499D01*
G37*
G36*
X122400399Y-66383499D02*
G01*
X123274125Y-66745408D01*
X123535047Y-66919751D01*
X124060459Y-67270820D01*
X124729180Y-67939541D01*
X124835727Y-68099000D01*
X125254592Y-68725875D01*
X125616501Y-69599601D01*
X125801000Y-70527141D01*
X125801000Y-71472859D01*
X125616501Y-72400399D01*
X125254592Y-73274125D01*
X125254591Y-73274126D01*
X124729180Y-74060459D01*
X124060459Y-74729180D01*
X123535047Y-75080249D01*
X123274125Y-75254592D01*
X122400399Y-75616501D01*
X121472859Y-75801000D01*
X120527141Y-75801000D01*
X119599601Y-75616501D01*
X118725875Y-75254592D01*
X118464953Y-75080249D01*
X117939541Y-74729180D01*
X117270820Y-74060459D01*
X116745409Y-73274126D01*
X116745408Y-73274125D01*
X116383499Y-72400399D01*
X116199000Y-71472859D01*
X116199000Y-70527141D01*
X116383499Y-69599601D01*
X116745408Y-68725875D01*
X117164273Y-68099000D01*
X117270820Y-67939541D01*
X117939541Y-67270820D01*
X118464953Y-66919751D01*
X118725875Y-66745408D01*
X119599601Y-66383499D01*
X120527141Y-66199000D01*
X121472859Y-66199000D01*
X122400399Y-66383499D01*
G37*
G36*
X150302585Y-66478802D02*
G01*
X150452410Y-66508604D01*
X150734674Y-66625521D01*
X150988705Y-66795259D01*
X151204741Y-67011295D01*
X151374479Y-67265326D01*
X151491396Y-67547590D01*
X151551000Y-67847240D01*
X151551000Y-68152760D01*
X151491396Y-68452410D01*
X151374479Y-68734674D01*
X151204741Y-68988705D01*
X150988705Y-69204741D01*
X150734674Y-69374479D01*
X150452410Y-69491396D01*
X150302585Y-69521198D01*
X150152761Y-69551000D01*
X149847239Y-69551000D01*
X149697415Y-69521198D01*
X149547590Y-69491396D01*
X149265326Y-69374479D01*
X149011295Y-69204741D01*
X148795259Y-68988705D01*
X148625521Y-68734674D01*
X148508604Y-68452410D01*
X148449000Y-68152760D01*
X148449000Y-67847240D01*
X148508604Y-67547590D01*
X148625521Y-67265326D01*
X148795259Y-67011295D01*
X149011295Y-66795259D01*
X149265326Y-66625521D01*
X149547590Y-66508604D01*
X149697415Y-66478802D01*
X149847239Y-66449000D01*
X150152761Y-66449000D01*
X150302585Y-66478802D01*
G37*
M02*
